{"title":"Battlestar Galactica Blood and Chrome Season 1 (all episodes mer","uid":7910849,"size":5588310951,"categoryP":"video","categoryS":"tv_shows","magnet":"?xt=urn:btih:f81d51644133e870002de54c05e1fd0e8b6fd71e&amp;dn=Battlestar+Galactica+Blood+and+Chrome+Season+1+%28all+episodes+mer&amp;tr=udp%3A%2F%2Ftracker.openbittorrent.com%3A80&amp;tr=udp%3A%2F%2Fopen.demonii.com%3A1337&amp;tr=udp%3A%2F%2Ftracker.coppersurfer.tk%3A6969&amp;tr=udp%3A%2F%2Fexodus.desync.com%3A6969","seeders":0,"leechers":1,"uploader":"gb3600","files":375,"time":1355213050,"description":"Blood And Chrome Season 1 - 1080p.wmv\n\nRelease Date  :  12-10-12 \nLanguage      :  English   \nFormat                           : Windows Media\nFile size                        : 5.23 GiB\nDuration                         : 1h 26mn\nOverall bit rate mode            : Constant\nOverall bit rate                 : 8 600 Kbps\nMaximum Overall bit rate         : 24.4 Mbps\nEncoded date                     : UTC 2012-12-08 15:39:21.231\n\nVideo\nID                               : 2\nFormat                           : VC-1\nFormat profile                   : MP\nCodec ID                         : WMV3\nCodec ID/Info                    : Windows Media Video 9\nCodec ID/Hint                    : WMV3\nDescription of the codec         : Windows Media Video 9 - Professional\nDuration                         : 1h 26mn\nBit rate mode                    : Constant\nBit rate                         : 24.0 Mbps\nWidth                            : 1 440 pixels\nHeight                           : 1 080 pixels\nDisplay aspect ratio             : 4:3\nFrame rate                       : 29.970 fps\nBit depth                        : 8 bits\nScan type                        : Progressive\nCompression mode                 : Lossy\nBits/(Pixel*Frame)               : 0.515\nStream size                      : 14.6 GiB\n\nAudio\nID                               : 1\nFormat                           : WMA\nFormat version                   : Version 2\nCodec ID                         : 161\nCodec ID/Info                    : Windows Media Audio\nDescription of the codec         : Windows Media Audio 9.2 - 192 kbps, 48 kHz, stereo (A/V) 1-pass CBR\nDuration                         : 1h 26mn\nBit rate mode                    : Constant\nBit rate                         : 192 Kbps\nChannel(s)                       : 2 channels\nSampling rate                    : 48.0 KHz\nBit depth                        : 16 bits\nStream size                      : 119 MiB (2%)\n\t\nAir Date      :  December 7, 2012\nImdb          : &lt;a href=&quot; http://www.imdb.com/title/tt1704292/&quot; rel=&quot;nofollow&quot; target=&quot;_NEW&quot;&gt; http://www.imdb.com/title/tt1704292/&lt;/a&gt;             \nPlot Outline  :The adventures of young William Adama in the First Cylon War.","torrent":{"xt":"urn:btih:f81d51644133e870002de54c05e1fd0e8b6fd71e","amp;dn":"Battlestar+Galactica+Blood+and+Chrome+Season+1+%28all+episodes+mer","amp;tr":["udp%3A%2F%2Ftracker.openbittorrent.com%3A80","udp%3A%2F%2Fopen.demonii.com%3A1337","udp%3A%2F%2Ftracker.coppersurfer.tk%3A6969","udp%3A%2F%2Fexodus.desync.com%3A6969"],"infoHash":"f81d51644133e870002de54c05e1fd0e8b6fd71e","infoHashBuffer":{"type":"Buffer","data":[248,29,81,100,65,51,232,112,0,45,229,76,5,225,253,14,139,111,215,30]},"announce":[],"urlList":[]}}